<svg width="43" height="50" viewBox="0 0 43 50" fill="none" xmlns="http://www.w3.org/2000/svg">
<path d="M1.1087 17.7889C11.2084 21.0974 26.3954 23.6867 35.828 16.5667C38.045 14.8932 43.6286 6.90486 40.9479 3.91969C37.5471 0.132663 31.246 2.10837 28.0148 5.32785C23.3855 9.94032 20.3286 18.9628 19.935 25.2815C19.6203 30.3332 20.3157 34.8435 20.7883 39.7884C21.0222 42.2362 22.2585 45.2555 21.9883 47.6795C21.6446 50.7627 26.5175 41.9071 26.9215 39.8946C27.0006 39.5006 24.1186 46.2181 24.3882 48.636C24.5225 49.8405 20.5905 46.8545 20.2016 46.5901C17.4342 44.7081 14.2805 43.412 11.1885 42.1796" stroke="#F9FAFC" stroke-width="2" stroke-linecap="round"/>
</svg>
