<svg width="92" height="64" viewBox="0 0 92 64" fill="none" xmlns="http://www.w3.org/2000/svg">
<path d="M8.6321 62.6607H8.62634C6.67276 62.6607 4.80596 61.9048 3.43488 60.5698C2.06498 59.236 1.302 57.4346 1.302 55.5638V8.33974C1.31367 7.13174 1.6435 5.94482 2.26255 4.89233C2.88271 3.83797 3.77326 2.95245 4.85193 2.32398C5.93077 1.69541 7.16006 1.34612 8.42159 1.31199C9.68295 1.27786 10.9306 1.56009 12.0443 2.12961C12.0445 2.12968 12.0446 2.12975 12.0447 2.12981L41.3883 17.1497L41.3887 17.1499C42.8105 17.877 44.3904 18.256 45.9928 18.256C47.5952 18.256 49.1751 17.877 50.5968 17.1499L50.5973 17.1497L79.9412 2.12962L79.9429 2.12873C81.0617 1.55397 82.3164 1.2695 83.5847 1.30495C84.8531 1.3404 86.0885 1.69445 87.1708 2.33031C88.2529 2.96606 89.1437 3.86086 89.7602 4.92473C90.3765 5.98835 90.6986 7.18639 90.6979 8.40294V8.40369L90.6979 55.5638L90.6979 55.5697C90.7039 56.8707 90.3405 58.1503 89.6447 59.2676C88.9487 60.3851 87.946 61.2983 86.7437 61.9021C85.5412 62.506 84.1881 62.7755 82.8346 62.6787C81.4812 62.582 80.1846 62.123 79.0877 61.3559L79.0789 61.3499L51.7622 42.5782L51.7503 42.57L51.7382 42.5621C51.405 42.3439 51.1223 42.0645 50.9052 41.742C50.6881 41.4196 50.5406 41.0601 50.4698 40.6849C50.3989 40.3097 50.4057 39.9246 50.4899 39.5518C50.5741 39.179 50.7344 38.8243 50.9631 38.509C51.1918 38.1936 51.4846 37.9236 51.8258 37.7165C52.167 37.5093 52.5491 37.3696 52.9495 37.3069C53.3501 37.2443 53.7594 37.2603 54.1532 37.3537C54.5467 37.4471 54.9154 37.6158 55.2378 37.8483L55.25 37.857L55.2623 37.8655L82.579 56.6231L84.6181 58.0232V55.5498V8.33372V6.20181L82.7215 7.17542L53.4357 22.2092C51.1426 23.3846 48.5879 23.9997 45.9928 23.9997C43.3976 23.9997 40.843 23.3846 38.5498 22.2092L38.5494 22.2089L9.21982 7.18886L7.32434 6.21816V8.34773V55.5638V58.0372L9.36336 56.6371L36.6801 37.8794L36.6924 37.8709L36.7046 37.8622C37.0269 37.6298 37.3955 37.4611 37.7892 37.3677C38.183 37.2743 38.5924 37.2583 38.9929 37.321C39.3933 37.3836 39.7754 37.5233 40.1166 37.7305C40.4578 37.9377 40.7506 38.2077 40.9793 38.523C41.208 38.8384 41.3683 39.193 41.4525 39.5658C41.5367 39.9386 41.5435 40.3237 41.4727 40.6989C41.4018 41.0741 41.2543 41.4336 41.0372 41.756C40.8201 42.0785 40.5374 42.3579 40.2042 42.5761L40.1919 42.5842L40.1798 42.5925L12.9062 61.3502L12.906 61.3503C11.6597 62.2079 10.1655 62.6675 8.6321 62.6607Z" fill="white" stroke="white" stroke-width="2.604"/>
</svg>
