<?xml version="1.0" standalone="no"?>
<!DOCTYPE svg PUBLIC "-//W3C//DTD SVG 20010904//EN"
 "http://www.w3.org/TR/2001/REC-SVG-20010904/DTD/svg10.dtd">
<svg version="1.0" xmlns="http://www.w3.org/2000/svg"
 width="86.000000pt" height="86.000000pt" viewBox="0 0 86.000000 86.000000"
 preserveAspectRatio="xMidYMid meet">
<metadata>
Created by potrace 1.14, written by Peter Selinger 2001-2017
</metadata>
<g transform="translate(0.000000,86.000000) scale(0.100000,-0.100000)"
fill="#000000" stroke="none">
<path d="M321 844 c-212 -57 -350 -268 -314 -480 41 -235 261 -396 489 -357
234 40 396 261 357 487 -44 255 -288 416 -532 350z m-1 -274 c55 -27 105 -50
112 -50 6 0 56 23 110 51 95 48 100 50 124 35 24 -16 24 -18 24 -176 l0 -160
-26 -16 c-25 -17 -26 -16 -111 42 -95 65 -114 87 -95 106 9 9 30 -1 94 -46
l83 -57 3 127 c1 70 0 129 -2 132 -3 2 -43 -16 -90 -42 -47 -25 -98 -46 -113
-46 -16 0 -70 22 -120 49 l-93 48 0 -133 c0 -74 3 -134 6 -134 3 0 38 23 77
51 77 57 101 64 104 34 2 -15 -16 -33 -69 -70 -111 -77 -115 -79 -144 -60 -24
15 -24 17 -24 170 0 142 2 157 20 175 11 11 22 20 25 20 3 0 50 -22 105 -50z"/>
</g>
</svg>
